<?xml version="1.0" encoding="utf-8"?>
<!-- Generator: Adobe Illustrator 18.0.0, SVG Export Plug-In . SVG Version: 6.00 Build 0)  -->
<!DOCTYPE svg PUBLIC "-//W3C//DTD SVG 1.1//EN" "http://www.w3.org/Graphics/SVG/1.1/DTD/svg11.dtd">
<svg version="1.1" id="Layer_1" xmlns="http://www.w3.org/2000/svg" xmlns:xlink="http://www.w3.org/1999/xlink" x="0px" y="0px"
	 width="11px" height="11px" viewBox="0 0 11 11" enable-background="new 0 0 11 11" xml:space="preserve">
<g id="Captions">
</g>
<g id="Layer_7" display="none">
</g>
<g id="Your_Icon" display="none">
	<polygon display="inline" points="74,39.5 61.7,39.5 61.7,15.5 37.2,15.5 37.2,39.5 26,39.5 50.2,63.5 	"/>
	<polygon display="inline" points="74,60.5 74,72.5 26,72.5 26,60.5 14,60.5 14,84.5 86,84.5 86,60.5 	"/>
</g>
<g id="Layer_6" display="none">
	<path display="inline" d="M70.3,74.5c-2.3,0-4.1,1.8-4.1,4.1c0,2.3,1.8,4.1,4.1,4.1c2.3,0,4.1-1.8,4.1-4.1
		C74.4,76.3,72.5,74.5,70.3,74.5z"/>
	<circle display="inline" cx="35.3" cy="78.6" r="4.1"/>
	<polygon display="inline" points="32.3,70.3 32.3,70.4 73.2,70.4 73.2,66.4 35.7,66.4 34.2,59 73.6,59 85.9,28.1 27.9,28.1 
		25.7,17.3 25.4,17.3 25.4,17.3 14.1,17.3 14.1,21.4 22.4,21.4 	"/>
</g>
<g id="Layer_5" display="none">
	<polygon display="inline" points="76,26 76,14 70,14 70,26 70,33 76,33 	"/>
	<path display="inline" d="M78,26v7v2h-2h-6h-2v-2v-7H32v7v2h-2h-6h-2v-2v-7h-8v60h72V26H78z M47.9,66.3c-0.5,1.7-1.2,3-2,4
		c-0.9,1-1.8,1.7-2.9,2.2c-1.1,0.4-2.3,0.6-3.6,0.6c-1.2,0-2.4-0.2-3.5-0.6c-1.1-0.4-2.1-1.2-2.9-2.2c-0.8-1-1.5-2.4-2-4
		c-0.5-1.7-0.7-3.8-0.7-6.3c0-2.4,0.2-4.5,0.7-6.2c0.5-1.7,1.2-3,2-4c0.8-1,1.8-1.7,2.9-2.2c1.1-0.4,2.3-0.6,3.5-0.6
		c1.3,0,2.5,0.2,3.6,0.6c1.1,0.4,2.1,1.2,2.9,2.2s1.5,2.3,2,4c0.5,1.7,0.7,3.7,0.7,6.2C48.6,62.5,48.3,64.6,47.9,66.3z M65.6,72.7
		h-5.1V56.3h-6.3v-3.9c0.9,0,1.7,0,2.6-0.2c0.8-0.2,1.6-0.4,2.2-0.8c0.7-0.4,1.2-0.9,1.7-1.6c0.5-0.7,0.8-1.5,0.9-2.4h4.1L65.6,72.7
		L65.6,72.7z"/>
	<polygon display="inline" points="30,26 30,14 24,14 24,26 24,33 30,33 	"/>
	<path display="inline" d="M43.3,56.5c-0.1-0.6-0.2-1.3-0.4-1.9c-0.2-0.6-0.4-1.2-0.7-1.7c-0.3-0.5-0.7-0.9-1.2-1.2
		c-0.5-0.3-1.1-0.5-1.8-0.5c-0.7,0-1.3,0.2-1.7,0.5c-0.5,0.3-0.9,0.7-1.2,1.2c-0.3,0.5-0.5,1.1-0.7,1.7c-0.2,0.6-0.3,1.3-0.4,1.9
		c-0.1,0.7-0.1,1.3-0.1,1.9c0,0.6,0,1.1,0,1.6c0,0.7,0,1.6,0.1,2.6c0,1,0.2,2,0.5,2.9c0.3,1,0.7,1.8,1.2,2.4c0.6,0.7,1.3,1,2.4,1
		c1.1,0,1.9-0.3,2.4-1c0.6-0.7,1-1.5,1.2-2.4c0.3-0.9,0.4-1.9,0.4-2.9c0-1,0.1-1.9,0.1-2.6c0-0.4,0-1,0-1.6
		C43.5,57.8,43.4,57.1,43.3,56.5z"/>
</g>
<g id="Layer_4">
	<path d="M10.9,9.7L7.6,6.4C8.1,5.7,8.3,5,8.3,4.1C8.3,1.8,6.5,0,4.2,0C1.9,0,0.1,1.8,0.1,4.1c0,2.3,1.8,4.1,4.1,4.1
		C5,8.3,5.7,8,6.3,7.7L9.7,11L10.9,9.7z M1.9,4.1c0-1.3,1-2.3,2.3-2.3c1.3,0,2.3,1,2.3,2.3c0,1.3-1,2.3-2.3,2.3
		C2.9,6.4,1.9,5.4,1.9,4.1z"/>
</g>
</svg>
